<?xml version="1.0" encoding="UTF-8" standalone="no"?>
<svg
   version="1.1"
   width="392"
   height="80"
   id="svg94"
   sodipodi:docname="dodslaser-dark.svg"
   inkscape:version="1.1.2 (0a00cf5339, 2022-02-04, custom)"
   xmlns:inkscape="http://www.inkscape.org/namespaces/inkscape"
   xmlns:sodipodi="http://sodipodi.sourceforge.net/DTD/sodipodi-0.dtd"
   xmlns="http://www.w3.org/2000/svg"
   xmlns:svg="http://www.w3.org/2000/svg">
  <sodipodi:namedview
     id="namedview96"
     pagecolor="#ffffff"
     bordercolor="#666666"
     borderopacity="1.0"
     inkscape:pageshadow="2"
     inkscape:pageopacity="0.0"
     inkscape:pagecheckerboard="0"
     showgrid="false"
     inkscape:zoom="3.1964286"
     inkscape:cx="195.84358"
     inkscape:cy="39.888268"
     inkscape:window-width="2560"
     inkscape:window-height="1379"
     inkscape:window-x="0"
     inkscape:window-y="211"
     inkscape:window-maximized="1"
     inkscape:current-layer="svg94" />
  <defs
     id="defs34">
    <mask
       id="text"
       fill="black">
      <rect
         width="100%"
         height="100%"
         fill="white"
         id="rect2" />
      <rect
         x="16"
         y="8"
         width="16"
         height="48"
         id="rect4" />
      <rect
         x="120"
         y="32"
         width="8"
         height="24"
         id="rect6" />
      <rect
         x="232"
         y="48"
         width="8"
         height="8"
         id="rect8" />
      <rect
         x="320"
         y="32"
         width="8"
         height="8"
         id="rect10" />
    </mask>
    <mask
       id="beam"
       fill="black">
      <rect
         width="100%"
         height="100%"
         fill="white"
         id="rect13" />
      <rect
         x="64"
         y="16"
         width="16"
         height="32"
         id="rect15" />
      <rect
         x="112"
         y="16"
         width="32"
         height="32"
         id="rect17" />
      <rect
         x="176"
         y="16"
         width="40"
         height="32"
         id="rect19" />
      <rect
         x="264"
         y="16"
         width="40"
         height="32"
         id="rect21" />
      <g
         fill-opacity=".4"
         id="g31">
        <rect
           x="88"
           y="16"
           width="16"
           height="32"
           id="rect23" />
        <rect
           x="152"
           y="16"
           width="16"
           height="32"
           id="rect25" />
        <rect
           x="224"
           y="16"
           width="32"
           height="32"
           id="rect27" />
        <rect
           x="312"
           y="16"
           width="16"
           height="32"
           id="rect29" />
      </g>
    </mask>
    <filter
       style="color-interpolation-filters:sRGB;"
       inkscape:label="Invert"
       id="filter917"
       x="0"
       y="0"
       width="1"
       height="1">
      <feColorMatrix
         type="hueRotate"
         values="180"
         result="color1"
         id="feColorMatrix913" />
      <feColorMatrix
         values="-1 0 0 0 1 0 -1 0 0 1 0 0 -1 0 1 -0.21 -0.72 -0.07 2 0 "
         result="color2"
         id="feColorMatrix915" />
    </filter>
  </defs>
  <!--Text-->
  <g
     fill="black"
     fill-opacity="1"
     mask="url(#text)"
     id="g52"
     style="filter:url(#filter917)">
    <!--D-->
    <path
       d="M0 0 H40 V8 H48 V56 H40 V64 H0 Z"
       id="path36"
       transform="translate(0 0)" />
    <!--d-->
    <path
       transform="translate(104 0)"
       d="M24 0 H40 V64 H8 V56 H0 V32 H8 V24 H24 Z"
       id="path38" />
    <!--s-->
    <path
       transform="translate(152 0)"
       d="M0 24 H32 V32 H16 V40 H32 V64 H0 V56 H16 V48 H0 Z"
       id="path40" />
    <!--l-->
    <path
       transform="translate(192 0)"
       d="M0 0 H16 V64 H0 Z"
       id="path42" />
    <!--a-->
    <path
       transform="translate(216 0)"
       d="M0 24 H32 V32 H40 V64 H0 V40 H24 V32 H0 Z"
       id="path44" />
    <!--s-->
    <path
       transform="translate(264 0)"
       d="M0 24 H32 V32 H16 V40 H32 V64 H0 V56 H16 V48 H0 Z"
       id="path46" />
    <!--e-->
    <path
       transform="translate(304 0)"
       d="M8 24 H32 V32 H40 V48 H16 V56 H40 V64 H8 V56 H0 V32 H8 Z"
       id="path48" />
    <!--r-->
    <path
       transform="translate(352 0)"
       d="M0 24 H8 V32 H16 V24 H32 V32 H24 V40 H16 V64 H0 Z"
       id="path50" />
  </g>
  <!--Beam-->
  <g
     transform="translate(40 8)"
     fill="red"
     mask="url(#beam)"
     id="g92">
    <path
       d="M16 24 H24 V16 H48 V24 H56 V32 H336 V40 H56 V48 H48 V56 H24 V48 H16 Z"
       id="path54" />
    <g
       fill-opacity=".8"
       id="g80">
      <rect
         width="8"
         height="8"
         x="32"
         y="8"
         id="rect56" />
      <rect
         width="8"
         height="8"
         x="48"
         y="8"
         id="rect58" />
      <rect
         width="8"
         height="8"
         x="56"
         y="16"
         id="rect60" />
      <rect
         width="8"
         height="8"
         x="336"
         y="32"
         id="rect62" />
      <rect
         width="8"
         height="8"
         x="56"
         y="48"
         id="rect64" />
      <rect
         width="8"
         height="8"
         x="48"
         y="56"
         id="rect66" />
      <rect
         width="8"
         height="8"
         x="32"
         y="56"
         id="rect68" />
      <rect
         width="8"
         height="8"
         x="16"
         y="56"
         id="rect70" />
      <rect
         width="8"
         height="8"
         x="8"
         y="48"
         id="rect72" />
      <rect
         width="8"
         height="8"
         x="8"
         y="32"
         id="rect74" />
      <rect
         width="8"
         height="8"
         x="8"
         y="16"
         id="rect76" />
      <rect
         width="8"
         height="8"
         x="16"
         y="8"
         id="rect78" />
    </g>
    <g
       fill-opacity=".6"
       id="g90">
      <rect
         width="8"
         height="8"
         x="32"
         y="0"
         id="rect82" />
      <rect
         width="8"
         height="8"
         x="344"
         y="32"
         id="rect84" />
      <rect
         width="8"
         height="8"
         x="32"
         y="64"
         id="rect86" />
      <rect
         width="8"
         height="8"
         x="0"
         y="32"
         id="rect88" />
    </g>
  </g>
</svg>
